<?xml version="1.0" encoding="UTF-8"?>
<svg version="1.1" xmlns="http://www.w3.org/2000/svg" width="625" height="627">
<path d="M0 0 C206.25 0 412.5 0 625 0 C625 206.91 625 413.82 625 627 C418.75 627 212.5 627 0 627 C0 420.09 0 213.18 0 0 Z " fill="#000000" transform="translate(0,0)"/>
<path d="M0 0 C81.18 0 162.36 0 246 0 C246 81.18 246 162.36 246 246 C164.82 246 83.64 246 0 246 C0 164.82 0 83.64 0 0 Z " fill="#010101" transform="translate(189,190)"/>
<path d="M0 0 C81.18 0 162.36 0 246 0 C246 81.18 246 162.36 246 246 C164.82 246 83.64 246 0 246 C0 164.82 0 83.64 0 0 Z M7 7 C7 83.56 7 160.12 7 239 C83.56 239 160.12 239 239 239 C239 162.44 239 85.88 239 7 C162.44 7 85.88 7 7 7 Z " fill="#FEFEFE" transform="translate(189,190)"/>
<path d="M0 0 C31.86666667 0 31.86666667 0 42 8 C42 8.66 42 9.32 42 10 C42.99 10.33 43.98 10.66 45 11 C51.47863186 19.43325558 52.29260735 28.76627302 51.31152344 38.97949219 C50.59669524 43.6157917 48.69565977 47.2290632 46 51 C45.62746094 51.57878906 45.25492187 52.15757812 44.87109375 52.75390625 C40.57258183 58.72988624 33.60317224 61.3587311 27 64 C18.09 64 9.18 64 0 64 C0 42.88 0 21.76 0 0 Z " fill="#FAFAFA" transform="translate(218,330)"/>
<path d="M0 0 C28 0 28 0 36 4 C40.18677628 8.40148276 41.30102295 11.84728801 41.22265625 17.9375 C40.71462854 22.64344093 38.3096874 25.83864593 35 29 C35.54269531 29.37511719 36.08539063 29.75023437 36.64453125 30.13671875 C37.71767578 30.90435547 37.71767578 30.90435547 38.8125 31.6875 C39.52019531 32.18636719 40.22789062 32.68523437 40.95703125 33.19921875 C44.17636134 36.03690741 45.78867266 38.6025742 46.43359375 42.8671875 C46.4421926 49.48830254 46.16459526 53.73945861 42 59 C29.68480548 68.749529 16.81041773 64 0 64 C0 42.88 0 21.76 0 0 Z " fill="#F8F8F8" transform="translate(297,236)"/>
<path d="M0 0 C4.62 0 9.24 0 14 0 C25.25292716 26.21084609 25.25292716 26.21084609 29.02734375 37.25 C30.16555971 40.46808849 31.526767 43.53457586 32.953125 46.6328125 C39 60.30597015 39 60.30597015 39 64 C33.72 64 28.44 64 23 64 C21.68 60.04 20.36 56.08 19 52 C11.08 51.67 3.16 51.34 -5 51 C-5.474375 52.959375 -5.94875 54.91875 -6.4375 56.9375 C-7.875 62.875 -7.875 62.875 -9 64 C-11.69654854 64.07319621 -14.36691458 64.09242537 -17.0625 64.0625 C-17.82111328 64.05798828 -18.57972656 64.05347656 -19.36132812 64.04882812 C-21.24091871 64.0370068 -23.12046899 64.01907078 -25 64 C-23.05161158 57.98760249 -20.9357693 52.06969233 -18.625 46.1875 C-18.31973389 45.40632813 -18.01446777 44.62515625 -17.69995117 43.8203125 C-15.57250155 38.39869332 -13.37080673 33.01176045 -11.109375 27.64453125 C-9.3505318 23.45179587 -7.67940164 19.22502097 -6 15 C-4.91775074 12.29123281 -3.83382593 9.58313665 -2.75 6.875 C-2.22393133 5.55990663 -1.69788746 4.24480335 -1.171875 2.9296875 C-0.78515625 1.96289062 -0.3984375 0.99609375 0 0 Z " fill="#F6F6F6" transform="translate(252,236)"/>
<path d="M0 0 C1.61953954 0.05925145 3.23794762 0.16585367 4.8515625 0.31640625 C5.68300781 0.35701172 6.51445312 0.39761719 7.37109375 0.43945312 C9.40879095 0.54485126 11.44345645 0.70628404 13.4765625 0.87890625 C10.84596803 5.66345079 8.04105004 9.97832697 4.7265625 14.31640625 C4.10974609 15.12754883 4.10974609 15.12754883 3.48046875 15.95507812 C2.4828839 17.26585822 1.48026573 18.57280525 0.4765625 19.87890625 C1.32734375 20.29076172 1.32734375 20.29076172 2.1953125 20.7109375 C9.22981985 24.3125089 14.11886343 27.60389159 17.4765625 34.87890625 C17.8065625 35.53890625 18.1365625 36.19890625 18.4765625 36.87890625 C19.39338077 44.86334888 18.93428592 51.06847993 14.328125 57.78125 C9.79525571 62.91658925 4.56084399 65.45969847 -2.1875 66.15234375 C-9.71438011 66.4105217 -15.38889918 65.43350131 -21.5234375 60.87890625 C-26.57472385 55.5910016 -28.67269212 51.09931361 -28.8984375 43.75390625 C-28.94742187 42.67882812 -28.99640625 41.60375 -29.046875 40.49609375 C-27.85017771 32.22637961 -21.95432315 25.43841533 -17.0859375 18.87890625 C-15.98138464 17.38014901 -14.87851585 15.88014916 -13.77734375 14.37890625 C-13.23045898 13.64728271 -12.68357422 12.91565918 -12.12011719 12.16186523 C-10.47081958 9.88661487 -10.47081958 9.88661487 -9.10644531 7.33227539 C-5.15903829 0.37363509 -5.15903829 0.37363509 0 0 Z " fill="#F7F7F7" transform="translate(375.5234375,235.12109375)"/>
<path d="M0 0 C12.54 0 25.08 0 38 0 C38 4.29 38 8.58 38 13 C30.41 13 22.82 13 15 13 C15 16.96 15 20.92 15 25 C22.26 25 29.52 25 37 25 C37 29.29 37 33.58 37 38 C29.74 38 22.48 38 15 38 C15 42.29 15 46.58 15 51 C22.59 51 30.18 51 38 51 C38 55.29 38 59.58 38 64 C25.46 64 12.92 64 0 64 C0 42.88 0 21.76 0 0 Z " fill="#F9F9F9" transform="translate(278,330)"/>
<path d="M0 0 C5.61 0 11.22 0 17 0 C22 14 27 28 32 42 C35.2164108 34.54706613 38.09252887 27.05419081 40.75488281 19.38916016 C43.02597259 12.86603655 45.48547896 6.43421561 48 0 C53.28 0 58.56 0 64 0 C62.29148195 8.54259024 59.17697135 15.93773831 55.4765625 23.8125 C52.40481823 30.443567 49.91072856 37.22987668 47.5 44.125 C45.6618049 49.33416213 43.57293189 54.12030158 41 59 C40.34 60.65 39.68 62.3 39 64 C34.71 64 30.42 64 26 64 C21.83360906 56.15738175 18.71766252 48.15287925 15.67578125 39.83447266 C13.5585971 34.08717435 11.23689861 28.4763834 8.625 22.9375 C5.1833832 15.49674592 2.66462372 7.74599918 0 0 Z " fill="#F6F6F6" transform="translate(321,330)"/>
<path d="M0 0 C7.69189723 0 12.04223313 0.24795863 17.578125 5.49609375 C22.17517297 10.79326684 22.42431022 15.31153105 22 22 C20.95332125 27.61400423 19.1412975 31.03875891 15 35 C9.76770822 37.92392776 6.19390028 38 0 38 C0 25.46 0 12.92 0 0 Z " fill="#090909" transform="translate(232,343)"/>
<path d="M0 0 C4.62 0 9.24 0 14 0 C11.92689696 6.6486897 9.35653355 12.80451077 6.3125 19.0625 C5.68891602 20.3609082 5.68891602 20.3609082 5.05273438 21.68554688 C4.03992213 23.79266201 3.02064126 25.89666592 2 28 C-0.97 28 -3.94 28 -7 28 C-6.19682789 22.4873187 -4.86042102 17.14504105 -3.5 11.75 C-3.27441406 10.83992188 -3.04882812 9.92984375 -2.81640625 8.9921875 C-2.59855469 8.12335938 -2.38070313 7.25453125 -2.15625 6.359375 C-1.95837891 5.57014648 -1.76050781 4.78091797 -1.55664062 3.96777344 C-1 2 -1 2 0 0 Z " fill="#F4F4F4" transform="translate(396,324)"/>
<path d="M0 0 C2.9375 1.5 2.9375 1.5 5 4 C5.65951493 8.61660448 5.56394783 10.82306541 3.5625 15 C0.29795144 17.54794034 -1.81153884 17.67376597 -5.87109375 17.40625 C-8 17 -8 17 -10.5625 15.5625 C-12.70907738 11.73599249 -12.89487669 8.27813857 -12 4 C-8.55770534 -0.27679033 -5.3165665 -0.7595095 0 0 Z " fill="#050505" transform="translate(374,270)"/>
<path d="M0 0 C10.04634878 -0.60520173 10.04634878 -0.60520173 14.25 2.0625 C16 5 16 5 16.1875 8.625 C15 12 15 12 12.5 13.9375 C8.09393447 15.27505561 4.59286917 15.20876678 0 15 C0 10.05 0 5.1 0 0 Z " fill="#040404" transform="translate(312,274)"/>
<path d="M0 0 C2 1 2 1 2.78125 3.07421875 C3.0184375 3.93660156 3.255625 4.79898437 3.5 5.6875 C4.3373767 8.65869954 5.19499645 11.57472639 6.1875 14.5 C7 17 7 17 7 19 C2.38 19 -2.24 19 -7 19 C-6.21621527 16.20589719 -5.42340302 13.41492517 -4.625 10.625 C-4.40328125 9.8309375 -4.1815625 9.036875 -3.953125 8.21875 C-3.73398438 7.45820313 -3.51484375 6.69765625 -3.2890625 5.9140625 C-3.09006348 5.2123291 -2.89106445 4.5105957 -2.68603516 3.78759766 C-2 2 -2 2 0 0 Z " fill="#080808" transform="translate(259,256)"/>
<path d="M0 0 C7 0 7 0 9.4375 1.5625 C11.58016848 4.90506283 11.49573337 7.10495209 11 11 C10 12.875 10 12.875 8 14 C5.31824378 14.53423546 2.73630552 14.77571266 0 15 C0 10.05 0 5.1 0 0 Z " fill="#080808" transform="translate(312,247)"/>
</svg>
